<?xml version="1.0" encoding="UTF-8"?><svg id="_圖層_1" xmlns="http://www.w3.org/2000/svg" xmlns:xlink="http://www.w3.org/1999/xlink" viewBox="0 0 1920 1162.95"><defs><style>.cls-1,.cls-2{stroke:#fff;stroke-miterlimit:10;stroke-width:5px;}.cls-1,.cls-3{fill:none;}.cls-4{clip-path:url(#clippath);}</style><clipPath id="clippath"><rect class="cls-3" x="1602.52" width="140.89" height="729.11"/></clipPath></defs><rect y="82.95" width="1920" height="1080"/><g class="cls-4"><g id="_圖層1"><path class="cls-1" d="m1701.66,334.16v97.43s-92.3,110.58-92.3,110.58v110.14"/><path class="cls-1" d="m1644.27,334.16v97.43s92.3,110.58,92.3,110.58v110.14"/><path class="cls-1" d="m1642.39,501.69v32.32l16.29,16.72-16.28,16.28,16.42,15.64,15.64-.13"/><path class="cls-1" d="m1699.37,496.5l.05,37.38-16.29,16.72,16.28,16.28-16.42,15.64-22.49.13"/><path class="cls-1" d="m1642.39,530.49l-17.17,17.97-.34,178.75"/><path class="cls-1" d="m1699.43,530.49l19.46,19.87.34,178.75"/><path class="cls-1" d="m1609.37,404.15l.07,32.46,48.99,48.85"/><path class="cls-1" d="m1736.56,404.15l-.07,32.46-48.99,48.85"/><path class="cls-2" d="m1672.97,0h0v457.32h0V0Z"/></g></g></svg>