<?xml version="1.0" encoding="UTF-8" standalone="no"?>
<!DOCTYPE svg PUBLIC "-//W3C//DTD SVG 1.1//EN" "http://www.w3.org/Graphics/SVG/1.1/DTD/svg11.dtd">
<!-- Created with Vectornator (http://vectornator.io/) -->
<svg height="300.0px" stroke-miterlimit="10" style="fill-rule:nonzero;clip-rule:evenodd;stroke-linecap:round;stroke-linejoin:round;" version="1.1" viewBox="0 0 57.97 300" width="57.97px" xml:space="preserve" xmlns="http://www.w3.org/2000/svg" xmlns:xlink="http://www.w3.org/1999/xlink">
<defs/>
<clipPath id="ArtboardFrame">
<rect height="300" width="57.97" x="0" y="0"/>
</clipPath>
<g clip-path="url(#ArtboardFrame)" id="圖層1">
<g opacity="1">
<path d="M40.7932 137.494L40.7895 177.583L2.81761 223.083L2.81761 263.669L2.81761 268.401" fill="none" opacity="1" stroke="#ffffff" stroke-linecap="butt" stroke-linejoin="miter" stroke-width="5"/>
<path d="M17.1768 137.494L17.1805 177.583L55.1524 223.083L55.1524 263.669L55.1524 268.401" fill="none" opacity="1" stroke="#ffffff" stroke-linecap="butt" stroke-linejoin="miter" stroke-width="5"/>
<path d="M16.406 206.426L16.406 219.726L23.108 226.605L16.4098 233.303L23.1652 239.74L29.6012 239.687" fill="none" opacity="1" stroke="#ffffff" stroke-linecap="butt" stroke-linejoin="miter" stroke-width="5"/>
<path d="M39.8507 204.291L39.8721 219.673L33.1701 226.552L39.8683 233.251L33.1129 239.687L23.8599 239.74" fill="none" opacity="1" stroke="#ffffff" stroke-linecap="butt" stroke-linejoin="miter" stroke-width="5"/>
<path d="M16.406 218.275L9.34082 225.669L9.19937 299.218" fill="none" opacity="1" stroke="#ffffff" stroke-linecap="butt" stroke-linejoin="miter" stroke-width="5"/>
<path d="M39.8721 218.275L47.8798 226.45L48.0213 300" fill="none" opacity="1" stroke="#ffffff" stroke-linecap="butt" stroke-linejoin="miter" stroke-width="5"/>
<path d="M2.81761 166.292L2.84469 179.646L23.0036 199.746" fill="none" opacity="1" stroke="#ffffff" stroke-linecap="butt" stroke-linejoin="miter" stroke-width="5"/>
<path d="M55.1524 166.292L55.1253 179.646L34.9664 199.746" fill="none" opacity="1" stroke="#ffffff" stroke-linecap="butt" stroke-linejoin="miter" stroke-width="5"/>
</g>
<path d="M28.985-1.24345e-14L28.985-1.24345e-14L28.985 188.167L28.985 188.167L28.985-1.24345e-14Z" fill="#000000" fill-rule="nonzero" opacity="1" stroke="#ffffff" stroke-linecap="butt" stroke-linejoin="miter" stroke-width="5"/>
</g>
</svg>